# xmcd CD database file
# Copyright (C) 1993-1998 Ti Kan
#
# Track frame offsets:
#  150
#  17197
#  35459
#  56024
#  73023
#  94646
#  112966
#  126257
#  143278
#  162461
#  182299
#  201296
#  220911
#  242744
#  264089
#  283177
#  306019
#
# Disc length: 4354 seconds
#
# Revision: 1
# Processed by: cddbd v1.4b41PL1 Copyright (c) Steve Scherf et al.
# Submitted via: CDWizzard Release:4.35
#
DISCID=ed110011
DTITLE=A-HA - Greatest Hits
DYEAR=1900
DGENRE=
TTITLE0=Take On Me
TTITLE1=Cry Wolf
TTITLE2=touchy
TTITLE3=You Are The One (remix)
TTITLE4=Manhattan Skyline
TTITLE5=The Blood That Moves The Body
TTITLE6=Early Morning
TTITLE7=Hunting High And Low (remix)
TTITLE8=Move To Memphis
TTITLE9=I've Been Losing You
TTITLE10=The Living Daylights
TTITLE11=Crying In The Rain
TTITLE12=I Call Your Name
TTITLE13=Stay On These Roads
TTITLE14=Train Of Thought (remix)
TTITLE15=The Sun Always Shines On T.V.
TTITLE16=Memorial Beach
EXTD=
EXTT0=
EXTT1=
EXTT2=
EXTT3=
EXTT4=
EXTT5=
EXTT6=
EXTT7=
EXTT8=
EXTT9=
EXTT10=
EXTT11=
EXTT12=
EXTT13=
EXTT14=
EXTT15=
EXTT16=
PLAYORDER=
